<?xml version="1.0" encoding="utf-8"?>
<!-- Generator: Adobe Illustrator 24.0.2, SVG Export Plug-In . SVG Version: 6.00 Build 0)  -->
<svg version="1.1" id="Calque_1" xmlns="http://www.w3.org/2000/svg" xmlns:xlink="http://www.w3.org/1999/xlink" x="0px" y="0px"
	 viewBox="0 0 1000 1000" style="enable-background:new 0 0 1000 1000;" xml:space="preserve">
<style type="text/css">
	.st0{fill:#C89462;stroke:#C89462;stroke-miterlimit:10;}
	.st1{fill:#F5CDA4;stroke:#F5CDA4;stroke-width:2;stroke-miterlimit:10;}
	.st2{fill:#F5CDA4;stroke:#F5CDA4;stroke-width:2;stroke-miterlimit:9.9999;}
	.st3{fill:none;}
	.st4{fill:#5A391B;}
	.st5{fill:#C89361;stroke:#C89361;stroke-width:2;stroke-miterlimit:10;}
	.st6{fill:#5A391B;stroke:#5A391B;stroke-miterlimit:10;}
	.st7{fill:#F5CDA4;stroke:#F5CDA4;stroke-miterlimit:10;}
	.st8{stroke:#000000;stroke-miterlimit:10;}
</style>
<g id="Calque_2_1_">
	<g>
		<ellipse class="st0" cx="491.5" cy="355.1" rx="309.3" ry="260.7"/>
		<ellipse class="st0" cx="312.1" cy="139.8" rx="125.6" ry="115.1"/>
		<ellipse class="st0" cx="660.1" cy="139.5" rx="125.6" ry="115.1"/>
		<ellipse class="st0" cx="498.9" cy="667.4" rx="255.5" ry="321.8"/>
		<ellipse class="st0" cx="263.5" cy="732" rx="79.2" ry="54.9"/>
		<ellipse class="st0" cx="318.7" cy="812.3" rx="66.8" ry="116.3"/>
		<ellipse class="st0" cx="735.3" cy="738.7" rx="79.2" ry="54.9"/>
		<ellipse class="st0" cx="679.7" cy="824.8" rx="66.8" ry="116.3"/>
		<ellipse class="st0" cx="280.4" cy="931.2" rx="38.4" ry="30.3"/>
		<ellipse class="st0" cx="706.9" cy="943.9" rx="38.4" ry="30.3"/>
		<ellipse class="st1" cx="161.1" cy="851.3" rx="95" ry="117.2"/>
		
			<ellipse transform="matrix(0.1403 -0.9901 0.9901 0.1403 -137.0709 1566.4906)" class="st2" cx="833.5" cy="862.2" rx="113.3" ry="93.9"/>
		<ellipse class="st1" cx="492.4" cy="449.1" rx="211.8" ry="132.3"/>
		<path class="st3" d="M306.2,443.1c84.2-65.6,211.4-81.8,309.5-39.5c48.1,20.8,86.2,53.9,112.9,96.7c32.1-40.2,51-88.9,51-141.4
			c0-40.8-11.7-81.4-33.8-117.2l-5.9-9.6l7.3-8.6c17.7-20.9,27.4-47.3,27.4-74.4c0-64.4-53.7-116.8-119.6-116.8
			c-47.7,0-90.7,27.6-109.7,70.3l-4.7,10.4l-11.3-1.3c-27.9-3.2-53.9-2.9-80.4,0.4l-11.6,1.5l-4.6-10.8
			c-18.7-43.6-62-71.8-110.4-71.8c-66,0-119.6,52.4-119.6,116.8c0,28.7,10.8,56.3,30.3,77.7l7.8,8.6l-6,9.9
			c-21.6,35.8-32.5,74.5-32.5,115c0,52.3,18.8,101,50.9,141.1C266.9,479.1,284.6,459.9,306.2,443.1z"/>
		<path class="st3" d="M261.3,553.8c-10.5,29.2-13.3,61.1-7.8,94.7c25.4,155.6,98.2,238.1,159.3,250.9c23.4,4.9,42.1-1.4,52.6-17.7
			c18.9-29.3,13.9-95.2-57-192.6l25.1-18.3c38.4,52.7,62,102.7,69.6,145.1c9.1-41.2,29.8-91.6,61.9-149.1l27.2,15.1
			c-68.8,123.5-72.6,191.4-53,213.8c14.6,16.7,42.9,8.1,54.3,3.6c63.3-24.7,150.6-122.8,147-263.4c-2.9-29.8-9.4-57.3-19.4-82.1
			c-58.2,52.8-139.7,85.8-229.8,85.8C400.9,639.5,319.5,606.6,261.3,553.8z"/>
		<path class="st3" d="M706.8,524.5c-23.6-41.4-58.6-73-103.3-92.3c-88.2-38-202.6-23.5-278.1,35.4c-21.2,16.5-38,35.6-50.3,56.6
			c52.9,51.6,130.1,84.2,216,84.2C576.8,608.4,653.9,575.9,706.8,524.5z"/>
		<path class="st3" d="M412.7,899.4c23.4,4.9,42.1-1.4,52.6-17.7c18.8-29,13.9-94.3-55.5-190.4c-0.9-1.2-0.6-2.9,0.6-3.8l20.8-15.1
			c1.2-0.9,2.9-0.6,3.9,0.6c34,47.2,56.2,92.2,65.6,131.4c0.6,2.7,4.5,2.8,5.2,0.1c10-38.4,29.3-83.9,57.8-135.3
			c0.7-1.3,2.4-1.8,3.7-1.1l22.4,12.5c1.3,0.7,1.7,2.4,1,3.7c-67.6,122-71.1,189.2-51.7,211.4c14.6,16.7,42.9,8.1,54.3,3.6
			c56-21.9,130.8-101.3,144.7-216.7c-10.9-7.1-22.3-14.1-34.3-20.9l-427-8.3c-6.8,5.3-13.3,10.5-19.6,15.7
			C285.3,811.3,354.4,887.2,412.7,899.4z"/>
		<path class="st3" d="M604.7,928.2c-14.4,5.7-28.2,8.5-40.7,8.5c-19.8,0-36.5-7-48.4-20.5c-6.4-7.3-11.1-16.2-14-26.6
			c-0.7-2.4-3.9-2.7-4.9-0.4c-1.6,3.3-3.3,6.5-5.3,9.5c-17.5,27-49.3,38.8-85.1,31.3c-61.2-12.8-141-83-176-237.6
			c-106.9,97-131.1,180.9-103.9,225c29,47.3,111.5,50.5,200.5,7.7l6.7-3.2l6.7,3.1c118.8,55.5,200.1,56.2,310.4,2.9l9-4.3l7.6,6.3
			c41.8,34.2,96.1,42.7,141.6,22.4c37.7-16.8,61.3-49.8,63-88.1c2.4-52.4-35.2-109.3-105.1-161.6
			C747.6,815.9,675.1,900.7,604.7,928.2z"/>
		<path class="st3" d="M722.3,552.4c3.5-3.3,7-6.7,10.4-10.1c-3.8,3.9-7.7,7.6-11.8,11.3c-38,34.6-86.1,60.6-140,74.4l-193.1-3.7
			c-48.4-14.5-91.6-39-126.5-70.6c-4.1-3.7-8.1-7.5-11.9-11.4c3.5,3.5,7,7,10.6,10.3c0.7,0.7,1.1,1.8,0.7,2.8
			c-8.5,24.4-11.6,50.7-9.1,78.2c0.4,4.9,1,9.9,1.8,14.9c1.1,7,2.4,13.8,3.7,20.5c28.2,142.3,97.2,218.2,155.5,230.3
			c23.4,4.9,42.1-1.4,52.6-17.7c18.8-29,13.9-94.3-55.5-190.4c-0.9-1.2-0.6-2.9,0.6-3.8l20.8-15.1c1.2-0.9,2.9-0.6,3.9,0.6
			c34,47.2,56.2,92.2,65.6,131.4c0.6,2.7,4.5,2.8,5.2,0.1c10-38.4,29.3-83.9,57.8-135.3c0.7-1.3,2.4-1.8,3.7-1.1l22.4,12.5
			c1.3,0.7,1.7,2.4,1,3.7c-67.6,122-71.1,189.2-51.7,211.4c14.6,16.7,42.9,8.1,54.3,3.6c56-21.9,130.8-101.3,144.7-216.7
			c1.4-11.4,2.2-23.3,2.3-35.4c0.1-3.7,0.1-7.4-0.1-11.2c0-0.1,0-0.2,0-0.2c-2.8-29.2-9.1-56-18.7-80.3
			C721.1,554.4,721.5,553.2,722.3,552.4z"/>
		<path class="st3" d="M731.8,818.7c17-38,45.8-66,77.7-79.7c-12.6-12.4-26.8-24.6-42.8-36.6c-19.1,113.5-91.6,198.3-162,225.8
			c-14.4,5.7-28.2,8.5-40.7,8.5c-19.8,0-36.5-7-48.4-20.5c-6.4-7.3-11.1-16.2-14-26.6c-0.7-2.4-3.9-2.7-4.9-0.4
			c-1.6,3.3-3.3,6.5-5.3,9.5c-17.5,27-49.3,38.8-85.1,31.3c-61.2-12.8-141-83-176-237.6c-13.1,11.9-24.9,23.6-35.6,35
			c6.7,3.2,13.3,7.1,19.7,11.8c26.8,19.6,47,49.7,56.9,84.9c13.3,47.1,5.2,94.1-18,126.5c23.3-4.8,48.1-13.1,73.5-25.4l6.7-3.2
			l6.7,3.1c118.8,55.5,200.1,56.2,310.4,2.9l9-4.3l7.6,6.3c22.1,18,47.6,28.8,73.5,32.1C713.8,925.9,708.7,870.3,731.8,818.7z"/>
		<path class="st3" d="M275.1,524.2c52.9,51.6,130.1,84.2,216,84.2c85.7,0,162.8-32.5,215.7-84c7.8-7.6,15.2-15.7,21.9-24.1
			c32.1-40.2,51-88.9,51-141.4c0-40.8-11.7-81.4-33.8-117.2l-5.9-9.6l7.3-8.6c17.7-20.9,27.4-47.3,27.4-74.4
			c0-64.4-53.7-116.8-119.6-116.8c-47.7,0-90.7,27.6-109.7,70.3l-4.7,10.4l-11.3-1.3c-27.9-3.2-53.9-2.9-80.4,0.4l-11.6,1.5
			l-4.6-10.8c-18.7-43.6-62-71.8-110.4-71.8c-66,0-119.6,52.4-119.6,116.8c0,28.7,10.8,56.3,30.3,77.7l7.8,8.6l-6,9.9
			c-21.6,35.8-32.5,74.5-32.5,115c0,52.3,18.8,101,50.9,141.1C259.9,508.6,267.2,516.6,275.1,524.2z"/>
		<path class="st3" d="M241.4,832.2c-8-28.5-24.1-52.7-45.3-68.1c-7.4-5.4-15.1-9.4-22.9-12.2C115.5,823,105,882.4,126.4,917.2
			c14.2,23.2,41.3,35.7,75.6,37.5C238.6,937.2,256.2,885.1,241.4,832.2z"/>
		<path class="st3" d="M871.8,864c1.5-32.5-12.4-66.6-39.8-100.4c-28.6,8.3-56.2,32.8-71.8,67.8c-23.1,51.5-12.1,107.2,23.8,128.7
			c8.5-1.8,16.7-4.4,24.7-8C846.5,935.2,870,902.3,871.8,864z"/>
		<path class="st3" d="M134.8,750c-0.4,0.1-0.9,0.1-1.4,0.2c-20.3,5.7-36.7,21.5-46.1,44.5c-10,24.2-11.1,53.3-3,81.8
			c0.1,0.5,0.3,1,0.5,1.4C84.5,842.3,98.9,799,134.8,750z"/>
		<path class="st3" d="M902.8,865.4c-1.6,35.6-17.3,67.4-43.5,90.7c20.1-12.1,38.2-32.2,49.8-58c24.4-54.5,10.8-113.7-30.2-132.1
			c-2.7-1.2-5.5-2.2-8.4-3C898.7,805.2,903.9,841.4,902.8,865.4z"/>
		<path class="st4" d="M891.6,737.7c-15-6.7-31.1-9.1-47.1-7.6c-18.5-20.3-42.5-41.5-73.7-63.2c0.7-10.6,0.9-21.4,0.6-32.4l-0.1-1
			c-3.4-36.6-12-70.1-25.2-99.8c-0.8-1.8-3.2-2.1-4.5-0.7c-2.2,2.4-4.5,4.8-6.7,7.1c3.2-3.4,6.5-6.7,9.5-10.2
			c41.5-47.3,66.3-106.6,66.3-170.8c0-43.1-11.4-85.7-33-124.2c18.1-24.9,27.9-55,27.9-85.7c0-81.5-67.6-147.8-150.7-147.8
			c-56,0-107.1,30.5-133.1,78.5c-22.6-1.9-43.9-1.8-65.7,0.3C430.6,31.1,379.1,0,322.3,0c-83.1,0-150.7,66.3-150.7,147.8
			c0,32.6,10.9,64.2,31.1,89.9c-20.6,37.7-31.4,79.3-31.4,121.2c0,64.1,24.7,123.2,66.1,170.5c3.1,3.5,6.3,7,9.6,10.3
			c-2.3-2.4-4.6-4.7-6.8-7.1c-1.3-1.5-3.7-1.1-4.5,0.7c-15.3,36.6-20,77.2-12.9,120.2c0.2,1.1,0.4,2.2,0.6,3.3
			c-24.3,20.9-44.9,41.2-62.2,60.7c-12.1-1.4-24.2-0.5-36.1,2.8c-29.7,8.3-53.3,30.6-66.5,62.5c-12.6,30.7-14.2,66.9-4.2,102.1
			c9.9,35.1,30.1,65.3,56.9,84.9c20.1,14.7,42.1,22.2,63.8,22.2c8.6,0,17.1-1.2,25.4-3.5c2.2-0.6,4.2-1.4,6.3-2.2
			c37.7,0.6,81.3-9.3,126.7-30.2c62.4,28.4,115.3,42.6,167.4,42.6c49.7,0,98.7-12.9,154.3-38.8c37.2,27.2,81.6,38.6,123.9,32.7
			c15,6.4,31.1,8.6,47.1,6.9c44.1-4.5,88.3-37.7,111.1-88.6C968.8,840.7,948.3,763.1,891.6,737.7z M740.3,635.7c0,0.1,0,0.2,0,0.2
			c0.1,3.8,0.1,7.5,0.1,11.2c-0.1,12.1-0.9,23.9-2.3,35.4C724.1,798,649.3,877.4,593.3,899.2c-11.5,4.5-39.8,13.1-54.3-3.6
			c-19.3-22.2-15.9-89.3,51.7-211.4c0.7-1.3,0.2-3-1-3.7l-22.4-12.5c-1.3-0.7-3-0.2-3.7,1.1c-28.5,51.4-47.8,97-57.8,135.3
			c-0.7,2.7-4.5,2.7-5.2-0.1C491.2,765.2,469,720.2,435,673c-0.9-1.2-2.6-1.5-3.9-0.6l-20.8,15.1c-1.2,0.9-1.4,2.5-0.6,3.8
			c69.4,96.2,74.2,161.3,55.5,190.4c-10.6,16.4-29.2,22.6-52.6,17.7c-58.3-12.2-127.3-88-155.5-230.3c-1.3-6.7-2.6-13.5-3.7-20.5
			c-0.8-5-1.4-9.9-1.8-14.9c-2.5-27.5,0.6-53.8,9.1-78.2c0.4-1,0.1-2.1-0.7-2.8c-3.7-3.4-7.2-6.8-10.6-10.3
			c3.9,3.9,7.8,7.7,11.9,11.4c34.9,31.6,78.1,56.1,126.5,70.6c32.4,9.8,67.1,15.1,103.3,15.1c31.2,0,61.4-4,89.8-11.4
			c53.9-13.9,102-39.9,140-74.4c4-3.7,8-7.5,11.8-11.3c-3.4,3.4-6.8,6.8-10.4,10.1c-0.8,0.7-1.1,1.9-0.7,2.9
			C731.2,579.7,737.6,606.5,740.3,635.7z M202.4,359c0-40.5,10.9-79.1,32.5-115l6-9.9l-7.8-8.6c-19.6-21.4-30.3-49-30.3-77.7
			C202.7,83.4,256.4,31,322.3,31c48.4,0,91.8,28.2,110.4,71.8l4.6,10.8l11.6-1.5c26.5-3.4,52.6-3.6,80.4-0.4l11.3,1.3l4.7-10.4
			c19-42.7,62-70.3,109.7-70.3c66,0,119.6,52.4,119.6,116.8c0,27.1-9.8,53.5-27.4,74.4L740,232l5.9,9.6
			c22.1,35.9,33.8,76.4,33.8,117.2c0,52.5-18.9,101.2-51,141.4c-6.7,8.4-14.1,16.5-21.9,24.1c-52.9,51.5-130,84-215.7,84
			c-85.9,0-163.1-32.6-216-84.2c-7.8-7.6-15.1-15.7-21.8-24.1C221.2,459.9,202.4,411.3,202.4,359z M84.3,876.5
			c-8-28.5-7-57.5,3-81.8c9.4-22.9,25.9-38.7,46.1-44.5c0.4-0.1,0.9-0.2,1.4-0.2c5.1-1.3,10.3-2.1,15.5-2.1c7.6,0,15.2,1.4,22.8,4
			c7.8,2.7,15.5,6.8,22.9,12.2c21.2,15.5,37.3,39.7,45.3,68.1c14.9,52.9-2.7,105-39.4,122.5c-3.2,1.5-6.4,2.9-9.8,3.8
			c-20.3,5.7-42.5,0.8-62.5-13.9c-20.8-15.2-36.7-38.9-44.8-66.7C84.6,877.4,84.5,877,84.3,876.5z M667.1,929.7l-7.6-6.3l-9,4.3
			c-110.4,53.3-191.6,52.5-310.4-2.9l-6.7-3.1l-6.7,3.2c-25.4,12.2-50.2,20.6-73.5,25.4c23.1-32.3,31.2-79.3,18-126.5
			c-9.9-35.1-30.1-65.3-56.9-84.9c-6.4-4.7-13-8.5-19.7-11.8c10.7-11.4,22.5-23.1,35.6-35c35,154.6,114.8,224.8,176,237.6
			c35.7,7.5,67.6-4.2,85.1-31.3c1.9-3,3.7-6.2,5.3-9.5c1.1-2.2,4.3-1.9,4.9,0.4c2.9,10.4,7.6,19.3,14,26.6
			c11.9,13.6,28.7,20.5,48.4,20.5c12.5,0,26.2-2.8,40.7-8.5c70.4-27.5,142.9-112.3,162-225.8c16,12,30.3,24.2,42.8,36.6
			c-31.9,13.7-60.7,41.8-77.7,79.7c-23.1,51.6-18,107.2,8.9,143.1C714.7,958.6,689.2,947.7,667.1,929.7z M909.1,898.1
			c-11.6,25.8-29.7,45.9-49.8,58c-22.4,13.4-47.3,17.1-68.9,7.4c-2.2-1-4.4-2.2-6.4-3.4c-35.9-21.4-46.9-77.2-23.8-128.7
			c15.7-35,43.2-59.6,71.8-67.8c4.5-1.3,9-2.2,13.6-2.7c8.5-0.9,16.8-0.2,24.9,2.1c2.9,0.8,5.7,1.8,8.4,3
			C919.9,784.4,933.5,843.7,909.1,898.1z"/>
		<g>
			<ellipse class="st5" cx="178.7" cy="884" rx="47.9" ry="43.6"/>
			<g>
				<circle class="st5" cx="106.9" cy="844.6" r="18.3"/>
				<circle class="st5" cx="140.7" cy="808.3" r="18.3"/>
				<circle class="st5" cx="190.5" cy="799.6" r="18.3"/>
			</g>
		</g>
		<g>
			<ellipse class="st5" cx="810.5" cy="889.3" rx="47.9" ry="43.6"/>
			<g>
				<circle class="st5" cx="894.3" cy="855" r="18.3"/>
				<circle class="st5" cx="860.6" cy="818.8" r="18.3"/>
				<circle class="st5" cx="810.9" cy="810" r="18.3"/>
			</g>
		</g>
		<ellipse class="st6" cx="355.4" cy="260.4" rx="24.6" ry="22.5"/>
		<ellipse class="st6" cx="622.7" cy="263" rx="24.6" ry="22.5"/>
		<ellipse class="st6" cx="489.1" cy="325.9" rx="61.2" ry="34.5"/>
		<path class="st7" d="M319.5,149.2c-52.4,42.8-78.8,50.5-78.8-5.7c0-46.4,73.2-114,130.9-54.9C403.9,123.9,350.4,123.9,319.5,149.2
			z"/>
		<path class="st7" d="M654.5,149.2c52.4,42.8,78.8,50.5,78.8-5.7c0-46.4-73.2-114-130.9-54.9C570,123.9,623.5,123.9,654.5,149.2z"
			/>
		<path class="st6" d="M488.7,496.6c-24.9,0-48.6-18-60.9-46.5l17.1-7.4c9.6,22.1,27.4,36,45.3,35.2c16-0.7,29.1-12.7,35.9-33
			l17.7,5.9c-9.2,27.6-28.9,44.8-52.8,45.8C490.2,496.5,489.4,496.6,488.7,496.6z"/>
		<path class="st8" d="M620.4,356.9c-12.4-6-23.9,0.2-23,4c23.9-12.7,30.6,38.9,2.9,30.3l-8-4.2c-57-39-72.9-50.2-104.3-24.7
			c-30.9-25.2-47-14.1-103.8,24.5l-8,4.2c-27.7,8.5-20.9-43.1,3-30.3c0.9-3.9-10.6-10.1-23-4.2c-20.3,13.2-21.5,71.9,36.6,78.1
			c55.3,3.3,91.3-28.7,95.7-32.7c5.8,5.3,41.3,35.7,95.1,32.8C641.6,428.8,640.7,370.2,620.4,356.9z"/>
	</g>
</g>
</svg>
