<?xml version="1.0" encoding="utf-8"?>
<!-- Generator: Adobe Illustrator 24.0.2, SVG Export Plug-In . SVG Version: 6.00 Build 0)  -->
<svg version="1.1" id="Calque_1" xmlns="http://www.w3.org/2000/svg" xmlns:xlink="http://www.w3.org/1999/xlink" x="0px" y="0px"
	 viewBox="0 0 1000 1000" style="enable-background:new 0 0 1000 1000;" xml:space="preserve">
<style type="text/css">
	.st0{fill:#4D4D4D;}
	.st1{fill:#FFFFFF;}
</style>
<g>
	<path class="st0" d="M302.1,127.5C302.1,79.8,311.6,0,429.7,0s80.5,0,163.7,0s107.6,48.4,107.6,127.5h201.9v134.7h-68
		c0,0,0,505.6,0,592.9S798.3,1000,664.4,1000s-214.1,0-348.1,0s-149.2-76.9-149.2-200.7s0-536.8,0-536.8h-70V129L302.1,127.5z"/>
	<path class="st1" d="M234.6,266.4c0,37.2,0,371.6,0,475.9c0,110.6,12.1,179.2,118.6,179.2c106.5,0,170.2,0,276.7,0
		c106.5,0,135.5-51.4,135.5-129.3c0-73.9,0-483.1,0-525.8H234.6z"/>
	<rect x="473" y="321.1" class="st0" width="54.1" height="545.7"/>
	<rect x="319" y="321.1" class="st0" width="54.1" height="545.7"/>
	<rect x="612.8" y="321.1" class="st0" width="54.1" height="545.7"/>
	<path class="st1" d="M367.9,115.5h271.9c0-36.7,4-66.5-68.3-66.5s-85.5,0-144.5,0S367.9,87.4,367.9,115.5z"/>
</g>
</svg>
